<svg xmlns="http://www.w3.org/2000/svg" xmlns:xlink="http://www.w3.org/1999/xlink" width="250" zoomAndPan="magnify" viewBox="0 0 187.5 74.999997" height="100" preserveAspectRatio="xMidYMid meet" version="1.0"><defs><g/><clipPath id="2c44ae441f"><path d="M 110.753906 12.390625 L 119.898438 12.390625 L 119.898438 26.40625 L 110.753906 26.40625 Z M 110.753906 12.390625 " clip-rule="nonzero"/></clipPath><clipPath id="4c0c04eab6"><path d="M 111.238281 28.929688 L 120.351562 28.929688 L 120.351562 46.875 L 111.238281 46.875 Z M 111.238281 28.929688 " clip-rule="nonzero"/></clipPath><clipPath id="902ab1a20a"><path d="M 115.796875 28.929688 C 118.3125 28.929688 120.351562 30.96875 120.351562 33.484375 L 120.351562 42.308594 C 120.351562 44.828125 118.3125 46.867188 115.796875 46.867188 C 113.277344 46.867188 111.238281 44.828125 111.238281 42.308594 L 111.238281 33.484375 C 111.238281 30.96875 113.277344 28.929688 115.796875 28.929688 Z M 115.796875 28.929688 " clip-rule="nonzero"/></clipPath></defs><g fill="#159fd8" fill-opacity="1"><g transform="translate(47.107989, 46.037123)"><g><path d="M 7.359375 -5.34375 L 7.40625 -3.109375 C 7.40625 -2.054688 7.226562 -1.171875 6.875 -0.453125 C 6.53125 0.265625 5.953125 0.882812 5.140625 1.40625 C 4.328125 1.925781 3.195312 2.394531 1.75 2.8125 L 0.453125 0.21875 L 0.453125 -0.171875 C 1.304688 -0.585938 1.90625 -1.019531 2.25 -1.46875 C 2.59375 -1.925781 2.765625 -2.523438 2.765625 -3.265625 L 2.765625 -4.84375 L 2.59375 -12.703125 L 0.453125 -12.625 L 0.171875 -12.953125 L 0.375 -16.25 L 7.640625 -16.25 Z M 7.359375 -5.34375 "/></g></g></g><g fill="#159fd8" fill-opacity="1"><g transform="translate(58.158506, 46.037123)"><g><path d="M 12.984375 -4.015625 L 13.25 -3.671875 L 12.953125 0 L 1.5 0 L 1.75 -4.765625 L 1.5 -16.25 L 13.15625 -16.25 L 13.4375 -15.890625 L 13.109375 -12.234375 L 9.109375 -12.375 L 6.53125 -12.375 L 6.484375 -10.09375 L 8.96875 -10.09375 L 11.578125 -10.171875 L 11.859375 -9.8125 L 11.546875 -6.15625 L 8.640625 -6.234375 L 6.375 -6.234375 L 6.359375 -5.265625 L 6.40625 -3.859375 L 8.8125 -3.859375 Z M 12.984375 -4.015625 "/></g></g></g><g fill="#159fd8" fill-opacity="1"><g transform="translate(73.70432, 46.037123)"><g><path d="M 12.203125 -6.40625 C 13.410156 -4.53125 14.613281 -2.789062 15.8125 -1.1875 L 15.75 -0.625 C 14.039062 -0.101562 12.359375 0.203125 10.703125 0.296875 L 10.21875 -0.09375 L 9.921875 -0.734375 C 9.785156 -0.992188 9.515625 -1.554688 9.109375 -2.421875 C 8.710938 -3.285156 8.363281 -4.09375 8.0625 -4.84375 L 6.375 -4.84375 L 6.546875 0 L 1.5 0 L 1.75 -4.765625 L 1.5 -16.25 L 9.21875 -16.265625 C 11.039062 -16.265625 12.445312 -15.832031 13.4375 -14.96875 C 14.425781 -14.113281 14.921875 -12.875 14.921875 -11.25 C 14.921875 -10.289062 14.679688 -9.394531 14.203125 -8.5625 C 13.722656 -7.726562 13.054688 -7.007812 12.203125 -6.40625 Z M 9.609375 -10.75 C 9.609375 -11.414062 9.4375 -11.910156 9.09375 -12.234375 C 8.757812 -12.566406 8.207031 -12.75 7.4375 -12.78125 L 6.53125 -12.703125 L 6.421875 -8.515625 L 8.265625 -8.40625 C 8.734375 -8.625 9.070312 -8.914062 9.28125 -9.28125 C 9.5 -9.65625 9.609375 -10.144531 9.609375 -10.75 Z M 9.609375 -10.75 "/></g></g></g><g fill="#159fd8" fill-opacity="1"><g transform="translate(91.510348, 46.037123)"><g><path d="M 16.046875 -5.296875 L 16.25 0 L 10.765625 0 L 6.203125 -8.6875 L 5.90625 -8.6875 L 5.875 -5.875 L 6.078125 0 L 1.5 0 L 1.75 -4.765625 L 1.5 -16.25 L 6.984375 -16.25 L 11.546875 -7.5625 L 11.859375 -7.5625 L 11.703125 -16.0625 L 16.328125 -16.34375 Z M 16.046875 -5.296875 "/></g></g></g><g fill="#159fd8" fill-opacity="1"><g transform="translate(111.310491, 46.037123)"><g/></g></g><g fill="#159fd8" fill-opacity="1"><g transform="translate(116.660265, 46.037123)"><g/></g></g><g fill="#159fd8" fill-opacity="1"><g transform="translate(122.017742, 46.037123)"><g><path d="M 16.265625 -5.265625 L 16.46875 0 L 11.421875 0 L 11.671875 -4.765625 L 11.65625 -6.03125 L 8.9375 -6.078125 L 6.609375 -6 L 6.578125 -5.265625 L 6.78125 0 L 1.734375 0 L 1.984375 -4.765625 L 1.734375 -16.25 L 6.859375 -16.25 L 6.703125 -10.09375 L 9.234375 -10.046875 L 11.546875 -10.09375 L 11.421875 -16.25 L 16.546875 -16.25 Z M 16.265625 -5.265625 "/></g></g></g><g clip-path="url(#2c44ae441f)"><path fill="#159fd8" d="M 116.785156 25.324219 C 116.734375 25.363281 116.660156 25.421875 116.554688 25.480469 C 116.453125 25.546875 116.320312 25.613281 116.160156 25.679688 C 116.003906 25.742188 115.816406 25.800781 115.609375 25.839844 C 115.554688 25.851562 115.5 25.859375 115.445312 25.867188 C 115.417969 25.871094 115.390625 25.875 115.363281 25.878906 L 115.339844 25.882812 L 115.324219 25.882812 C 115.3125 25.882812 115.320312 25.882812 115.316406 25.882812 L 115.3125 25.882812 C 115.300781 25.886719 115.285156 25.886719 115.273438 25.886719 C 115.246094 25.890625 115.21875 25.890625 115.191406 25.894531 C 115.164062 25.894531 115.136719 25.898438 115.105469 25.898438 C 115.042969 25.898438 114.980469 25.902344 114.917969 25.898438 C 114.667969 25.890625 114.402344 25.855469 114.140625 25.785156 C 113.875 25.710938 113.605469 25.605469 113.355469 25.460938 C 113.101562 25.320312 112.863281 25.140625 112.652344 24.933594 C 112.625 24.910156 112.597656 24.882812 112.570312 24.855469 L 112.496094 24.773438 C 112.445312 24.722656 112.398438 24.664062 112.351562 24.605469 C 112.261719 24.492188 112.175781 24.371094 112.101562 24.246094 C 111.949219 24 111.832031 23.738281 111.753906 23.476562 C 111.671875 23.210938 111.628906 22.949219 111.613281 22.699219 C 111.613281 22.667969 111.609375 22.640625 111.609375 22.609375 C 111.609375 22.578125 111.605469 22.546875 111.609375 22.515625 C 111.609375 22.457031 111.609375 22.398438 111.613281 22.339844 C 111.617188 22.28125 111.621094 22.222656 111.625 22.167969 C 111.628906 22.140625 111.632812 22.117188 111.636719 22.089844 C 111.640625 22.0625 111.644531 22.039062 111.648438 22.011719 C 111.675781 21.804688 111.71875 21.621094 111.761719 21.457031 C 111.808594 21.296875 111.855469 21.160156 111.894531 21.046875 C 111.9375 20.9375 111.976562 20.851562 112 20.792969 C 112.027344 20.734375 112.042969 20.703125 112.042969 20.703125 C 112.042969 20.703125 112.046875 20.738281 112.046875 20.800781 C 112.046875 20.863281 112.050781 20.957031 112.050781 21.074219 C 112.054688 21.191406 112.058594 21.332031 112.066406 21.492188 C 112.074219 21.652344 112.085938 21.832031 112.105469 22.023438 C 112.109375 22.070312 112.113281 22.121094 112.121094 22.171875 L 112.121094 22.175781 C 112.121094 22.175781 112.121094 22.171875 112.121094 22.175781 L 112.121094 22.179688 L 112.125 22.1875 L 112.125 22.207031 C 112.128906 22.21875 112.128906 22.230469 112.132812 22.242188 C 112.132812 22.265625 112.136719 22.292969 112.140625 22.316406 C 112.148438 22.367188 112.160156 22.414062 112.167969 22.464844 C 112.171875 22.492188 112.179688 22.515625 112.183594 22.542969 C 112.191406 22.566406 112.195312 22.59375 112.203125 22.617188 C 112.253906 22.820312 112.320312 23.027344 112.410156 23.234375 C 112.5 23.4375 112.613281 23.640625 112.746094 23.832031 C 112.8125 23.929688 112.882812 24.019531 112.957031 24.109375 C 112.976562 24.132812 112.996094 24.152344 113.015625 24.175781 C 113.035156 24.199219 113.054688 24.222656 113.074219 24.242188 C 113.117188 24.285156 113.15625 24.328125 113.199219 24.367188 C 113.371094 24.53125 113.554688 24.679688 113.75 24.804688 C 113.945312 24.929688 114.148438 25.035156 114.359375 25.121094 C 114.566406 25.203125 114.773438 25.265625 114.980469 25.308594 C 115.007812 25.316406 115.03125 25.320312 115.054688 25.324219 C 115.078125 25.328125 115.101562 25.332031 115.128906 25.335938 C 115.148438 25.34375 115.179688 25.347656 115.207031 25.347656 C 115.234375 25.351562 115.261719 25.355469 115.285156 25.359375 C 115.300781 25.363281 115.3125 25.363281 115.328125 25.367188 C 115.328125 25.367188 115.335938 25.367188 115.324219 25.367188 L 115.339844 25.367188 L 115.355469 25.371094 C 115.382812 25.371094 115.40625 25.375 115.429688 25.375 C 115.476562 25.382812 115.527344 25.382812 115.574219 25.386719 C 115.761719 25.398438 115.933594 25.394531 116.089844 25.382812 C 116.246094 25.371094 116.386719 25.351562 116.5 25.335938 C 116.558594 25.324219 116.609375 25.316406 116.652344 25.308594 C 116.699219 25.296875 116.734375 25.289062 116.765625 25.285156 C 116.828125 25.269531 116.863281 25.261719 116.863281 25.261719 C 116.863281 25.261719 116.835938 25.285156 116.785156 25.324219 Z M 115.324219 12.390625 C 115.324219 12.390625 110.753906 17.671875 110.753906 22.171875 C 110.753906 24.699219 112.800781 26.746094 115.324219 26.746094 C 117.851562 26.746094 119.898438 24.699219 119.898438 22.171875 C 119.898438 19.648438 115.324219 16.65625 115.324219 12.390625 " fill-opacity="1" fill-rule="nonzero"/></g><g clip-path="url(#4c0c04eab6)"><g clip-path="url(#902ab1a20a)"><path fill="#159fd8" d="M 111.238281 28.929688 L 120.351562 28.929688 L 120.351562 46.875 L 111.238281 46.875 Z M 111.238281 28.929688 " fill-opacity="1" fill-rule="nonzero"/></g></g></svg>